{"title":"Brothers.TS.XviD-IMAGiNE(Murlok)","uid":5227294,"size":1260242330,"categoryP":"video","categoryS":"movies","magnet":"?xt=urn:btih:bbb7f443acbba77c29402b732842ac8569da524e&amp;dn=Brothers.TS.XviD-IMAGiNE%28Murlok%29&amp;tr=udp%3A%2F%2Ftracker.openbittorrent.com%3A80&amp;tr=udp%3A%2F%2Fopen.demonii.com%3A1337&amp;tr=udp%3A%2F%2Ftracker.coppersurfer.tk%3A6969&amp;tr=udp%3A%2F%2Fexodus.desync.com%3A6969","seeders":1,"leechers":0,"uploader":"Murlok","files":-1,"time":1261176127,"description":"                    Another Fine Release Brought to you from - IMAGiNE                  \n\n                                           \n\n\n\n********************************************************************************************************************                                \n\n                                     Brothers.TS.XviD-IMAGiNE\n\n********************************************************************************************************************\n\n\n\nRipper ...........: IMAGiNE                                        IMDB Rating.......:7.7/10                            \n\nVideo Codec.......: XVID                                         Release Date......:18/12/09\n\nAudio Codec.......:MP3                                           Theatre Date......:14/08/09\n\nAudio Bitrate.....:128                                              Runtime.......:1h 41mn\n\nSubtitles.........:NIL                                                 Language..........:ENGLISH\n\nResolution...... 640 x 300                                      IMDb URL..........:http://www.imdb.com/title/tt0765010//\n\n\n\n\n\nDETAILS:\n\n\n\n\n\nVideo\n\nID                               : 0\n\nFormat                           : MPEG-4 Visual\n\nFormat profile                   : AdvancedSimple@L5\n\nFormat settings, BVOP            : Yes\n\nFormat settings, QPel            : No\n\nFormat settings, GMC             : No warppoints\n\nFormat settings, Matrix          : Default (MPEG)\n\nMuxing mode                      : Packed bitstream\n\nCodec ID                         : XVID\n\nCodec ID/Hint                    : XviD\n\nDuration                         : 1h 40mn\n\nBit rate                         : 1 502 Kbps\n\nWidth                            : 640 pixels\n\nHeight                           : 300 pixels\n\nDisplay aspect ratio             : 2.2:1\n\nFrame rate                       : 29.970 fps\n\nResolution                       : 24 bits\n\nColorimetry                      : 4:2:0\n\nScan type                        : Progressive\n\nBits/(Pixel*Frame)               : 0.261\n\nStream size                      : 1.06 GiB (91%)\n\nWriting library                  : XviD 1.2.1 (UTC 2008-12-04)\n\n\n\nAudio\n\nID                               : 1\n\nFormat                           : MPEG Audio\n\nCodec ID                         : 55\n\nCodec ID/Hint                    : MP3\n\nDuration                         : 1h 40mn\n\nBit rate                         : 128 Kbps\n\nChannel(s)                       : 2 channels\n\nSampling rate                    : 44.1 KHz\n\nStream size                      : 92.2 MiB (8%)\n\nAlignment                        : Split accross interleaves\n\nInterleave, duration             : 33 ms (1.00 video frame)\n\nInterleave, preload duration     : 500 ms\n\n\n\n\n\nNOTES:\n\n\n\nIMAGiNE bringing you another release.....Brothers\n\nWell we cleaned up the Video as much as we could, its the best out at the moment .. Thanks ExtraScene\n\nAdded our own pretty decent Audio to go with it . Definitely a very watchable release. We thought about waiting for a better\n\nbetter source... but it seems the next source might very well be a screener ( we can only hope).\n &lt;a href=&quot;\nhttp://www.imdb.com/title/tt0765010/&quot; rel=&quot;nofollow&quot; target=&quot;_NEW&quot;&gt;\nhttp://www.imdb.com/title/tt0765010/&lt;/a&gt;   votes 7.7/10\n\nEnjoy","torrent":{"xt":"urn:btih:bbb7f443acbba77c29402b732842ac8569da524e","amp;dn":"Brothers.TS.XviD-IMAGiNE%28Murlok%29","amp;tr":["udp%3A%2F%2Ftracker.openbittorrent.com%3A80","udp%3A%2F%2Fopen.demonii.com%3A1337","udp%3A%2F%2Ftracker.coppersurfer.tk%3A6969","udp%3A%2F%2Fexodus.desync.com%3A6969"],"infoHash":"bbb7f443acbba77c29402b732842ac8569da524e","infoHashBuffer":{"type":"Buffer","data":[187,183,244,67,172,187,167,124,41,64,43,115,40,66,172,133,105,218,82,78]},"announce":[],"urlList":[]}}